<svg xmlns="http://www.w3.org/2000/svg" viewBox="0 0 232.6 205.92"><defs><style>.cls-1{fill:#fff;}</style></defs><g id="Capa_2" data-name="Capa 2"><g id="Layer_1" data-name="Layer 1"><path class="cls-1" d="M177.59,21.07c-28.79,0-53.34,22.74-54.7,51.21,0,.37-.13,1.48-.13,1.86l-.9,65.29c0,5.82,6.13,10.53,11.94,10.53s11.95-4.71,11.95-10.53V117.52c10.24,7,20,11.14,32.29,11.14a53.8,53.8,0,0,0-.45-107.59Zm0,86.54a32.75,32.75,0,1,1,32.75-32.74A32.78,32.78,0,0,1,177.59,107.61Z"/><path class="cls-1" d="M55.2,21.07A51.18,51.18,0,0,0,22.86,32.22V10.64C22.86,4.83,17.44,0,11.62,0h.05C5.86,0,.67,4.83.67,10.64v66A9.65,9.65,0,0,0,.93,78,53.77,53.77,0,0,0,20,116c4.93,3.22,11,1.92,13.84-1.79,4.75-6.3,2.28-11.46-1.09-15.06h0a32.75,32.75,0,1,1,43.94,0L77,99s-7.1,5.53-2.51,13.53c3.48,6.06,10.49,6.49,15.09,3.34A53.66,53.66,0,0,0,55.2,21.07Z"/><path class="cls-1" d="M118.53,205.92a147.66,147.66,0,0,1-63.47-14.26A132.81,132.81,0,0,1,1.73,145.92a10.24,10.24,0,1,1,17-11.39,112.51,112.51,0,0,0,45.13,38.65,127.29,127.29,0,0,0,57.65,12.21A118.81,118.81,0,0,0,174,172.11a99.92,99.92,0,0,0,39.56-37.18,10.24,10.24,0,1,1,17.54,10.58,120.2,120.2,0,0,1-47.53,44.72A139.52,139.52,0,0,1,122,205.88C120.85,205.91,119.69,205.92,118.53,205.92Z"/></g></g></svg>