<svg xmlns="http://www.w3.org/2000/svg" viewBox="0 0 463.36 68.33"><defs><style>.cls-1{fill:#fff;}</style></defs><g id="Capa_2" data-name="Capa 2"><g id="Layer_1" data-name="Layer 1"><path class="cls-1" d="M9.71,5.9V20.31a20.9,20.9,0,0,1,3.61-3.38,13.14,13.14,0,0,1,3.9-1.87,16.48,16.48,0,0,1,4.59-.62A13.4,13.4,0,0,1,28.37,16a11.14,11.14,0,0,1,4.5,4.55,11.13,11.13,0,0,1,1.39,3.9,31.48,31.48,0,0,1,.35,5V48a6.41,6.41,0,0,1-1.33,4.41,4.51,4.51,0,0,1-3.54,1.5q-4.8,0-4.8-5.91V31.62a15.07,15.07,0,0,0-1.39-7.16C22.62,22.78,20.87,22,18.28,22a7.88,7.88,0,0,0-4.67,1.47,8.92,8.92,0,0,0-3.12,4q-.78,2.17-.78,7.72V48a6.57,6.57,0,0,1-1.3,4.4A4.52,4.52,0,0,1,4.8,53.93Q0,53.93,0,48V5.9A6.66,6.66,0,0,1,1.26,1.48,4.39,4.39,0,0,1,4.8,0,4.54,4.54,0,0,1,8.41,1.49,6.54,6.54,0,0,1,9.71,5.9Z"/><path class="cls-1" d="M68.76,48.45A30,30,0,0,1,62,52.56a19.1,19.1,0,0,1-7.38,1.37A14,14,0,0,1,48,52.45a10.81,10.81,0,0,1-4.35-4A10.37,10.37,0,0,1,42.12,43a9.81,9.81,0,0,1,2.52-6.79,12.62,12.62,0,0,1,6.94-3.77q.93-.22,4.59-1t6.28-1.37c1.74-.42,3.63-.92,5.67-1.52-.12-2.56-.63-4.44-1.55-5.63s-2.8-1.8-5.67-1.8a11.81,11.81,0,0,0-5.57,1,9.08,9.08,0,0,0-3.2,3.1c-.89,1.37-1.52,2.28-1.88,2.72a3.1,3.1,0,0,1-2.37.66,4.15,4.15,0,0,1-2.83-1.05,3.44,3.44,0,0,1-1.19-2.69,8.26,8.26,0,0,1,1.81-5,13,13,0,0,1,5.66-4,25.34,25.34,0,0,1,9.57-1.57A27.29,27.29,0,0,1,71,15.88a9.38,9.38,0,0,1,5.17,4.79,20.87,20.87,0,0,1,1.51,8.68c0,2.27,0,4.21,0,5.8s0,3.35-.06,5.3a19.66,19.66,0,0,0,.91,5.7A18.58,18.58,0,0,1,79.4,50,3.57,3.57,0,0,1,78,52.7a4.69,4.69,0,0,1-3.18,1.23,4.27,4.27,0,0,1-3-1.41A20.25,20.25,0,0,1,68.76,48.45ZM68.12,34.4a48.85,48.85,0,0,1-6.21,1.65q-4.06.87-5.63,1.28a7.8,7.8,0,0,0-3,1.6,4.12,4.12,0,0,0-1.43,3.33A4.91,4.91,0,0,0,53.54,46a6.18,6.18,0,0,0,4.37,1.55,11.43,11.43,0,0,0,5.32-1.26A8.37,8.37,0,0,0,66.8,43q1.32-2.2,1.32-7.25Z"/><path class="cls-1" d="M95.51,19.88v1.18a19.16,19.16,0,0,1,5.69-5,13.89,13.89,0,0,1,6.69-1.59,15.4,15.4,0,0,1,8.25,2.32,15.89,15.89,0,0,1,6,6.75,23.62,23.62,0,0,1,2.19,10.53A25.75,25.75,0,0,1,123,42.35a18.7,18.7,0,0,1-3.47,6.3,15.19,15.19,0,0,1-5.21,3.91,15.47,15.47,0,0,1-6.46,1.37,13.6,13.6,0,0,1-7-1.67,20.33,20.33,0,0,1-5.39-4.91V61.93q0,6.41-4.66,6.4-2.73,0-3.63-1.65a10.44,10.44,0,0,1-.89-4.82V20a6.17,6.17,0,0,1,1.21-4.15,4.2,4.2,0,0,1,3.31-1.37,4.34,4.34,0,0,1,3.36,1.41A5.7,5.7,0,0,1,95.51,19.88Zm19,14.13a16.86,16.86,0,0,0-1.17-6.6,9.6,9.6,0,0,0-3.26-4.23,7.72,7.72,0,0,0-4.6-1.48,8.65,8.65,0,0,0-6.78,3.16Q96,28,96,34.18c0,3.87.92,6.88,2.74,9a8.57,8.57,0,0,0,6.8,3.22A7.86,7.86,0,0,0,110,45a9.76,9.76,0,0,0,3.31-4.22A16.71,16.71,0,0,0,114.54,34Z"/><path class="cls-1" d="M141,19.88v1.18a19.28,19.28,0,0,1,5.69-5,13.89,13.89,0,0,1,6.69-1.59,15.46,15.46,0,0,1,8.26,2.32,15.87,15.87,0,0,1,5.95,6.75,23.62,23.62,0,0,1,2.19,10.53,25.75,25.75,0,0,1-1.26,8.24,18.53,18.53,0,0,1-3.47,6.3,15.19,15.19,0,0,1-5.21,3.91,15.44,15.44,0,0,1-6.46,1.37,13.6,13.6,0,0,1-7-1.67A20.33,20.33,0,0,1,141,47.35V61.93q0,6.41-4.66,6.4c-1.82,0-3-.55-3.62-1.65a10.32,10.32,0,0,1-.89-4.82V20a6.12,6.12,0,0,1,1.21-4.15,4.17,4.17,0,0,1,3.3-1.37,4.38,4.38,0,0,1,3.37,1.41A5.74,5.74,0,0,1,141,19.88Zm19,14.13a16.86,16.86,0,0,0-1.17-6.6,9.66,9.66,0,0,0-3.25-4.23A7.77,7.77,0,0,0,151,21.7a8.65,8.65,0,0,0-6.78,3.16q-2.74,3.18-2.75,9.32,0,5.81,2.73,9a8.58,8.58,0,0,0,6.8,3.22,7.83,7.83,0,0,0,4.48-1.4,9.69,9.69,0,0,0,3.31-4.22A16.71,16.71,0,0,0,160.07,34Z"/><path class="cls-1" d="M185.62,55.14l.89-2.17-12-30.1a11.38,11.38,0,0,1-1.1-3.77,4.37,4.37,0,0,1,.64-2.31,4.82,4.82,0,0,1,1.76-1.71,4.73,4.73,0,0,1,2.33-.64,3.82,3.82,0,0,1,3.17,1.34,12.22,12.22,0,0,1,1.88,3.82l8.22,23.9,7.79-22.23A38.83,38.83,0,0,1,200.91,17,5,5,0,0,1,202.49,15a4.38,4.38,0,0,1,2.37-.54,4.3,4.3,0,0,1,3.68,2.17,4.28,4.28,0,0,1,.55,2.1c-.09.45-.25,1.09-.46,1.92s-.47,1.67-.78,2.53L195.19,56.31A38.84,38.84,0,0,1,192,63.18,10.49,10.49,0,0,1,187.84,67a15.24,15.24,0,0,1-7,1.33,16.87,16.87,0,0,1-6.41-.92A3.37,3.37,0,0,1,172.35,64a3.3,3.3,0,0,1,1-2.58,4.42,4.42,0,0,1,3-.91,5.66,5.66,0,0,1,1.53.22,7.33,7.33,0,0,0,1.6.21,5.67,5.67,0,0,0,2.63-.5,4.65,4.65,0,0,0,1.73-1.72A28.56,28.56,0,0,0,185.62,55.14Z"/><path class="cls-1" d="M225.1,19.88v1.18a19.16,19.16,0,0,1,5.69-5,13.89,13.89,0,0,1,6.69-1.59,15.4,15.4,0,0,1,8.25,2.32,15.89,15.89,0,0,1,6,6.75,23.62,23.62,0,0,1,2.19,10.53,25.75,25.75,0,0,1-1.26,8.24,18.7,18.7,0,0,1-3.47,6.3,15.19,15.19,0,0,1-5.21,3.91,15.47,15.47,0,0,1-6.46,1.37,13.6,13.6,0,0,1-7-1.67,20.18,20.18,0,0,1-5.39-4.91V61.93q0,6.41-4.66,6.4-2.74,0-3.63-1.65a10.44,10.44,0,0,1-.89-4.82V20a6.17,6.17,0,0,1,1.21-4.15,4.2,4.2,0,0,1,3.31-1.37,4.34,4.34,0,0,1,3.36,1.41A5.7,5.7,0,0,1,225.1,19.88Zm19,14.13a16.86,16.86,0,0,0-1.17-6.6,9.6,9.6,0,0,0-3.26-4.23,7.72,7.72,0,0,0-4.6-1.48,8.65,8.65,0,0,0-6.78,3.16q-2.76,3.18-2.76,9.32c0,3.87.92,6.88,2.74,9a8.57,8.57,0,0,0,6.8,3.22,7.86,7.86,0,0,0,4.48-1.4,9.76,9.76,0,0,0,3.31-4.22A16.71,16.71,0,0,0,244.13,34Z"/><path class="cls-1" d="M271.31,39.91V48a6.23,6.23,0,0,1-1.39,4.43,4.6,4.6,0,0,1-3.52,1.48,4.43,4.43,0,0,1-3.45-1.5A6.36,6.36,0,0,1,261.6,48V21q0-6.55,4.73-6.55A3.94,3.94,0,0,1,269.81,16,8.36,8.36,0,0,1,271,20.49,17,17,0,0,1,274.56,16a7.42,7.42,0,0,1,4.9-1.53A12.54,12.54,0,0,1,285.4,16q2.88,1.53,2.88,4.06a4.09,4.09,0,0,1-3.88,4.09,12.07,12.07,0,0,1-2.58-.66,12,12,0,0,0-3.61-.66,5.31,5.31,0,0,0-3.48,1.12,7.09,7.09,0,0,0-2.1,3.33,23.09,23.09,0,0,0-1,5.25C271.4,34.52,271.31,37,271.31,39.91Z"/><path class="cls-1" d="M327.16,34.18a23,23,0,0,1-1.35,8,17.73,17.73,0,0,1-3.92,6.29,17,17,0,0,1-6.12,4,21.56,21.56,0,0,1-8,1.41,21,21,0,0,1-7.93-1.43,17.53,17.53,0,0,1-10-10.33,23.13,23.13,0,0,1-1.33-8,23.16,23.16,0,0,1,1.35-8.07,17.62,17.62,0,0,1,3.88-6.26,17,17,0,0,1,6.12-4,23,23,0,0,1,15.93,0,17.15,17.15,0,0,1,10.05,10.31A23,23,0,0,1,327.16,34.18Zm-9.75,0q0-5.94-2.61-9.24a8.5,8.5,0,0,0-7-3.31,8.74,8.74,0,0,0-5,1.47,9.41,9.41,0,0,0-3.34,4.36,17.77,17.77,0,0,0-1.17,6.72,17.66,17.66,0,0,0,1.15,6.66,9.54,9.54,0,0,0,3.31,4.35,8.61,8.61,0,0,0,5.07,1.52,8.49,8.49,0,0,0,7-3.33C316.54,41.16,317.41,38.1,317.41,34.18Z"/><path class="cls-1" d="M344.59,20.24V53.18c0,2.35-.08,4.26-.23,5.74a12.51,12.51,0,0,1-.66,3.23q-2.42,6.18-10.28,6.18a14.75,14.75,0,0,1-6.69-1.2,3.82,3.82,0,0,1-2.28-3.53,3.89,3.89,0,0,1,1-2.79,3.54,3.54,0,0,1,2.7-1.08,5.71,5.71,0,0,1,.69.05c.32,0,.8.08,1.43.12s1.06.08,1.29.08a2.57,2.57,0,0,0,2.62-1.53,15.59,15.59,0,0,0,.66-5.48V20.24a6.18,6.18,0,0,1,1.35-4.34,4.62,4.62,0,0,1,3.56-1.46,4.5,4.5,0,0,1,3.46,1.44A6.23,6.23,0,0,1,344.59,20.24Zm-4.8-10.32a5.11,5.11,0,0,1-3.47-1.24,4.4,4.4,0,0,1-1.44-3.52,4.39,4.39,0,0,1,1.47-3.4A5,5,0,0,1,339.79.43a5.07,5.07,0,0,1,3.34,1.21,4.31,4.31,0,0,1,1.46,3.52,4.44,4.44,0,0,1-1.43,3.5A4.9,4.9,0,0,1,339.79,9.92Z"/><path class="cls-1" d="M381.65,36.57h-19A12.91,12.91,0,0,0,364,42.4a8.92,8.92,0,0,0,8.2,5.09,11.79,11.79,0,0,0,3.19-.41,10.29,10.29,0,0,0,2.79-1.28,20.74,20.74,0,0,0,2.49-1.87c.76-.66,1.74-1.56,2.95-2.7a3.17,3.17,0,0,1,2.13-.64,3.48,3.48,0,0,1,2.42.82,2.9,2.9,0,0,1,.93,2.31,6.35,6.35,0,0,1-1,3.07,12,12,0,0,1-3.12,3.38,17.64,17.64,0,0,1-5.22,2.69,22.6,22.6,0,0,1-7.24,1.07q-9.36,0-14.55-5.34t-5.2-14.48a24.19,24.19,0,0,1,1.28-8,17.68,17.68,0,0,1,3.74-6.32,16.16,16.16,0,0,1,6.05-4,21.62,21.62,0,0,1,8-1.41,18.91,18.91,0,0,1,9.76,2.4,15.8,15.8,0,0,1,6.1,6.21,16.34,16.34,0,0,1,2,7.75q0,3.68-2.1,4.75A13,13,0,0,1,381.65,36.57Zm-19-5.52h17.61q-.36-5-2.69-7.45a8,8,0,0,0-6.13-2.47,7.78,7.78,0,0,0-6,2.51Q363.15,26.14,362.66,31.05Z"/><path class="cls-1" d="M432.66,41.9a8.4,8.4,0,0,1-1.08,3.88,13.19,13.19,0,0,1-3.31,3.93,17,17,0,0,1-5.6,3,23.72,23.72,0,0,1-7.61,1.14q-9,0-14.05-5.25T396,34.54A23.15,23.15,0,0,1,398.27,24a16.61,16.61,0,0,1,6.68-7.1,22.76,22.76,0,0,1,17.38-1.41,18.27,18.27,0,0,1,5.34,2.85A13.51,13.51,0,0,1,431,22a7.35,7.35,0,0,1,1.16,3.68,3.89,3.89,0,0,1-1.3,3,4.45,4.45,0,0,1-3.15,1.21,3.19,3.19,0,0,1-2-.62,10.45,10.45,0,0,1-1.8-2,14.68,14.68,0,0,0-3.71-4.06,9.15,9.15,0,0,0-11.87,2q-2.62,3.36-2.63,9.2a17.79,17.79,0,0,0,.68,5,11.39,11.39,0,0,0,1.95,3.91,8.47,8.47,0,0,0,3.1,2.46,9.37,9.37,0,0,0,4,.84,8.91,8.91,0,0,0,5-1.36,11.78,11.78,0,0,0,3.68-4.12A9.29,9.29,0,0,1,426,38.6a3.64,3.64,0,0,1,2.53-.93A3.75,3.75,0,0,1,431.49,39,4.33,4.33,0,0,1,432.66,41.9Z"/><path class="cls-1" d="M441.66,15.3h1.07V9.46c0-1.56,0-2.79.13-3.68a5.36,5.36,0,0,1,.69-2.29,4.33,4.33,0,0,1,1.64-1.62,4.57,4.57,0,0,1,2.38-.62,4.8,4.8,0,0,1,3.34,1.38,4.11,4.11,0,0,1,1.27,2.26,21.36,21.36,0,0,1,.26,3.79V15.3H456a4.57,4.57,0,0,1,3.15,1,3.25,3.25,0,0,1,1.08,2.51,2.8,2.8,0,0,1-1.54,2.74,10.11,10.11,0,0,1-4.43.78h-1.82V40.16a30.57,30.57,0,0,0,.16,3.51,3.56,3.56,0,0,0,.86,2,2.91,2.91,0,0,0,2.26.76,12.22,12.22,0,0,0,2.31-.3,12.07,12.07,0,0,1,2.27-.3,2.91,2.91,0,0,1,2.12.94,3.15,3.15,0,0,1,.94,2.33,3.9,3.9,0,0,1-2.56,3.59,17.3,17.3,0,0,1-7.36,1.25q-4.56,0-6.9-1.53a7.09,7.09,0,0,1-3.08-4.24,28.93,28.93,0,0,1-.73-7.22V22.3h-1.28a4.63,4.63,0,0,1-3.2-1,3.25,3.25,0,0,1-1.1-2.53,3.15,3.15,0,0,1,1.15-2.51A5.08,5.08,0,0,1,441.66,15.3Z"/></g></g></svg>