<svg id="Capa_1" data-name="Capa 1" xmlns="http://www.w3.org/2000/svg" viewBox="0 0 1125 1668"><defs><style>.cls-1{opacity:0.19;}.cls-2{fill:#7352ff;}.cls-3{fill:#2f13a5;}.cls-4{fill:#d311aa;}.cls-5{fill:#fff;opacity:0.4;}</style></defs><path class="cls-1" d="M371.18,574.53,331.81,551.6c-22.75-13.4-22.46-46.41.53-59.39l93.49-52.81C469,415,554.05,387.86,596.69,413.1l58.9,36.54c41,25.12,40.23,80.13-1.91,103.32l-9.91,5.45C551.51,610.53,462.57,628.14,371.18,574.53Z"/><g id="C"><path class="cls-2" d="M637.2,427.44l2.65-2.55L568.59,317.67,469.47,305s-89.08,40.49-89.4,41.46S353.83,410,353.83,410l5.87,3.17,55.83,44.1a167.14,167.14,0,0,1,18.07-11.94q32.55-18.78,63.75-22.17t53.8,9.68q14.93,8.61,23.73,18.51a155.73,155.73,0,0,1,15.73,20.93l69.27-17.59A129.25,129.25,0,0,0,637.2,427.44Z"/><path class="cls-3" d="M589.26,475.62l-1.12-1.8a153.69,153.69,0,0,0-15.43-20.54c-5.64-6.34-13.38-12.37-23-17.93-14.44-8.34-32-11.46-52-9.3-20.29,2.2-41.35,9.54-62.6,21.8a164.77,164.77,0,0,0-17.76,11.72L415.5,461l-57.61-45.5-7.77-4.14,1-2.43c7.09-17.09,25.6-61.79,26.19-63.36s.71-2.12,90.94-43.13l.76-.34L570.28,315l73.35,110.36-2.2,2.12a130.86,130.86,0,0,1,20.93,25.72l.43,3.79ZM509.7,419.55c16.13,0,30.52,3.6,42.91,10.75,10.17,5.87,18.4,12.3,24.45,19.11a160.21,160.21,0,0,1,14.88,19.52l63.31-16.09a129.15,129.15,0,0,0-20-23.25l-2.27-2.1,3.13-3L566.9,320.4l-97-12.36c-32.68,14.86-80.94,37-87.51,40.45-2.78,6.84-18.44,44.66-24.88,60.19l3.55,1.91,54.49,43a176.2,176.2,0,0,1,16.57-10.78c22-12.67,43.79-20.26,64.89-22.55A117.61,117.61,0,0,1,509.7,419.55Z"/><path class="cls-2" d="M438.1,523.92V471.65l-17.88-17.83-48.13-48-23.45-23.37-40.57-4.87V478.23l.14.12c0,21.61,16.72,42.19,50.5,61.69a279.3,279.3,0,0,0,79.39,30.83L491.66,540q-20.85-5-39.77-10.92C447.08,527.52,442.59,525.73,438.1,523.92Z"/><path class="cls-3" d="M438.58,574l-1.11-.25a283.93,283.93,0,0,1-80.22-31.15c-33.76-19.5-51.22-40.63-51.93-62.83l0,0-.15-1.48V374.3L350,379.68l91,90.76V522c3.62,1.45,7.6,3,11.74,4.29,12.51,3.92,25.82,7.58,39.58,10.87l2.24,4.52ZM311,476.83l.15,1.52c0,20.48,16.51,40.38,49,59.17a277.65,277.65,0,0,0,77.46,30.26l46.29-26.73c-11.38-2.86-22.42-6-32.9-9.24-5.07-1.59-9.82-3.5-14-5.18l-1.83-.74v-53L347.3,385.23,311,380.87Z"/><path class="cls-4" d="M551.16,333.6q-22.6-13.05-53.81-9.67T433.61,346.1q-67.68,39.07-16.19,68.79a170.66,170.66,0,0,0,34.47,14.91q18.92,5.93,39.78,10.93L438.1,471.65a279.42,279.42,0,0,1-79.38-30.83q-53.09-30.65-50.59-64.77t60.69-67.72a249.33,249.33,0,0,1,77.7-29,236.32,236.32,0,0,1,81.86-1.71A215.3,215.3,0,0,1,603.76,304q38,21.94,56.12,51.47l-69.27,17.6a155,155,0,0,0-15.72-20.93Q566.07,342.22,551.16,333.6Z"/><path class="cls-5" d="M603.76,325a215.63,215.63,0,0,0-75.38-26.39,236.56,236.56,0,0,0-81.86,1.71,249.33,249.33,0,0,0-77.7,29c-32,18.47-51.14,37.05-57.89,55.75v30.11C317,431.4,332.87,447,358.72,461.87a279.07,279.07,0,0,0,79.39,30.83l53.56-30.92q-20.85-5-39.78-10.92A170.66,170.66,0,0,1,417.42,436q-51.5-29.73,16.19-68.79,32.55-18.8,63.74-22.18t53.81,9.68q14.91,8.61,23.73,18.52a154.93,154.93,0,0,1,15.72,20.92l69.27-17.59Q641.77,347,603.76,325Z"/><path class="cls-3" d="M661.16,352.12c-12.31-19.26-31.08-36.31-55.94-50.67a219.48,219.48,0,0,0-76.39-26.74A240.4,240.4,0,0,0,446,276.44a253.38,253.38,0,0,0-78.6,29.36c-39.51,22.82-60.42,46.38-62.14,70-1.75,23.84,15.76,46.56,52,67.5a283.39,283.39,0,0,0,77.93,30.56v98.22l3.39,1.85,56-32.34V438.43s-29.65-7.6-41.82-11.41a169,169,0,0,1-33.89-14.65c-13.79-8-20.78-16.34-20.78-24.9,0-11.61,12.44-24.68,37-38.85,21.25-12.26,42.31-19.59,62.61-21.79,20.07-2.18,37.58,1,52,9.3,9.63,5.56,17.37,11.59,23,17.93a153.9,153.9,0,0,1,15,19.89v98.32l1.57,3.35,73.53-18.68V354.63Zm-84.09-1.93c-6.06-6.82-14.29-13.24-24.46-19.11-15.55-9-34.23-12.36-55.57-10.05-21.11,2.29-42.94,9.88-64.89,22.55-26.85,15.49-39.89,29.85-39.89,43.89,0,10.79,8,20.87,23.7,29.95A174.87,174.87,0,0,0,451,432.58c10.48,3.28,21.52,6.39,32.91,9.25l-46.3,26.72a277.58,277.58,0,0,1-77.46-30.26c-34.18-19.73-50.71-40.6-49.13-62,1.57-21.62,21.5-43.63,59.24-65.42a247.48,247.48,0,0,1,76.79-28.69,239,239,0,0,1,45.51-4.41,229.5,229.5,0,0,1,35.35,2.72,213.61,213.61,0,0,1,74.37,26c23.35,13.48,41.14,29.32,53,47.12L591.94,369.7A159,159,0,0,0,577.07,350.19Z"/><polygon class="cls-3" points="497.35 323.93 497.35 423.15 456.51 432.67 412.13 412.58 395.94 393.15 400.19 373.23 419.26 353.95 457.48 334.19 497.35 323.93"/><polygon class="cls-3" points="515.87 322.93 515.87 421.69 541.14 425.67 541.14 327.02 515.87 322.93"/></g><path class="cls-1" d="M589.17,755.46l-66.36-39.08c-21.38-12.58-21.1-43.59.5-55.79L611.13,611c40.53-22.89,120.46-48.41,160.52-24.7l84.71,51.86c38.54,23.59,37.23,80-2.35,101.79L844.7,745C758,794,675,805.82,589.17,755.46Z"/><g id="O"><path class="cls-2" d="M856.3,519.2l-72.84,37.13c-28-12.57-56.89-18.74-86.62-18.28-31.24.48-62.13,8.2-92.67,23l-40.4-17.82-33.39-17.49s-.77,109-.77,109.08.19,3.29.19,3.29c.8,20.48,17.28,40.12,49.82,58.91q52.18,30.13,108,29.18t110.94-32.8q55.32-32,57-64c0-.86-.13-1.71-.14-2.56l.15-.07Z"/><path class="cls-3" d="M684.22,729.1c-36.36,0-72-10-106.06-29.6-33.18-19.16-50.43-39.8-51.27-61.33,0,0-.2-3.36-.2-3.54,0-.77.77-109,.77-109l0-4.78,37.63,19.71,39,17.2c30.55-14.57,61.73-22.19,92.68-22.67,29.48-.45,58.53,5.6,86.59,18l75.87-38.68-.86,114.09a7.08,7.08,0,0,1,0,1c-1.13,22.29-20.79,44.61-58.42,66.33-37,21.39-74.84,32.55-112.35,33.2C686.49,729.09,685.35,729.1,684.22,729.1Zm-151-198.61c-.74,104.29-.74,104.34-.74,104.43,0,.24.19,3,.19,3,.76,19.48,17,38.49,48.37,56.58,34.16,19.72,70,29.36,106.45,28.79s73.35-11.53,109.53-32.42c35.8-20.67,54.48-41.39,55.52-61.59a9.77,9.77,0,0,0-.06-1.08c0-.42-.08-.85-.08-1.28l0-1.79.19-.1.76-101-69.81,35.59-1.27-.57c-27.67-12.41-56.42-18.47-85.39-18-30.51.47-61.28,8.1-91.45,22.67l-1.21.58L562.6,545.85Z"/><polygon class="cls-2" points="700.11 449.64 600.96 499.22 579.86 540.9 669.39 593.76 777.43 555.22 809.28 488.56 700.11 449.64"/><path class="cls-4" d="M799.33,583.17Q744.16,615,688.38,616t-108-29.18q-51.43-29.68-50-62.2T587,460.24q54.57-31.51,110.64-32.37t108.11,29.18q52.18,30.12,50.54,62.15T799.33,583.17ZM648.91,496.32q-63.4,36.6-19.29,62.07a79.19,79.19,0,0,0,48.67,10.31q26.25-2.62,58.83-21.44Q769.88,528.35,774.5,513t-17.18-28Q712.91,459.37,648.91,496.32Z"/><path class="cls-5" d="M852.68,520.12c-6.29-15.32-22-30.29-47.35-44.93q-52-30-108.12-29.18T586.58,478.38c-30,17.34-47.93,34.83-54.06,52.47v27.73q8.75,24,47.48,46.35,52.17,30.14,108,29.18t110.94-32.8c29.23-16.88,47-33.76,53.79-50.67Zm-78.61,11q-4.62,15.38-37.38,34.28-32.6,18.81-58.83,21.44a79.19,79.19,0,0,1-48.67-10.31q-44.1-25.47,19.28-62.07,64-36.95,108.42-11.3Q778.72,515.75,774.07,531.12Z"/><path class="cls-3" d="M685.05,618.91c-36.38,0-72-9.95-106.08-29.6-35.14-20.29-52.46-42.1-51.47-64.84s20.52-45.09,58-66.76c36.64-21.15,74.34-32.18,112.05-32.76s74.62,9.37,109.62,29.58c35.65,20.57,53.14,42.38,52,64.82s-20.8,44.62-58.43,66.34l-1.45-2.52,1.45,2.52c-37,21.38-74.83,32.55-112.35,33.2C687.31,618.91,686.17,618.91,685.05,618.91Zm15.67-188.15-3,0c-36.71.57-73.45,11.33-109.22,32s-54.25,41.45-55.14,62,15.45,40.43,48.56,59.54c34.16,19.73,70,29.43,106.44,28.8s73.37-11.54,109.54-32.42c35.81-20.67,54.48-41.39,55.52-61.59S837.9,479,804.3,459.57C771.17,440.45,736.34,430.76,700.72,430.76Zm-31.11,141.3a81.76,81.76,0,0,1-41.45-11.15c-13-7.49-19.55-16-19.55-25.29,0-13.06,12.7-26.73,38.84-41.82,43.42-25.07,80.88-28.89,111.33-11.31,15.81,9.13,22,19.67,18.51,31.33-3.33,11.09-16,22.85-38.71,36-22,12.7-42.18,20-60,21.82A87.78,87.78,0,0,1,669.61,572.06Zm48.08-94.55c-20.19,0-42.7,7.12-67.33,21.34h0c-23.84,13.76-35.92,26.13-35.92,36.77,0,7.06,5.6,13.87,16.64,20.24A76.61,76.61,0,0,0,678,565.8c17-1.7,36.4-8.79,57.68-21.07,21.06-12.16,33.19-23.12,36-32.59,2.68-8.86-2.51-16.9-15.85-24.6A75.07,75.07,0,0,0,717.69,477.51Z"/><path class="cls-3" d="M688.4,479.34v89.74s-19.94,1.79-21.27,2.13-45.19-14.68-45.19-14.68l-10.42-19.4L619,520l28.63-22.4Z"/><polygon class="cls-3" points="708.67 476.73 708.67 563.21 740.93 546.74 741.2 476.73 708.67 476.73"/><polygon class="cls-3" points="694.57 616 694.57 725.9 756.18 714.21 803.32 689.92 837.33 664.65 855.3 636.47 856.35 529.58 836.84 557.27 799.33 583.17 746.95 605.86 694.57 616"/><polygon class="cls-3" points="661.92 613.09 661.92 721.94 629.85 719.56 606.63 710.38 606.63 599.86 632.28 609.75 661.92 613.09"/></g><path class="cls-1" d="M430.3,1032.56,357.8,990.7a10.2,10.2,0,0,1,.07-17.7l131.67-74.55a65.13,65.13,0,0,1,64.66.27l35,20.24a23.07,23.07,0,0,1-.17,40l-30,17L459,1032.68A28.87,28.87,0,0,1,430.3,1032.56Z"/><g id="F"><polygon class="cls-2" points="359.68 955.41 436.12 999.26 436.12 731.72 359.68 687.88 359.68 955.41"/><polygon class="cls-4" points="496.61 608.83 573.05 652.67 436.12 731.72 359.68 687.88 496.61 608.83"/><polygon class="cls-4" points="567.18 765.12 522.19 740.04 497.77 754.14 497.77 805.2 567.18 765.12"/><polygon class="cls-5" points="496.61 630.17 573.05 674.02 436.12 753.07 359.68 709.23 496.61 630.17"/><polygon class="cls-5" points="567.18 786.47 522.19 761.39 497.77 775.49 497.77 826.54 567.18 786.47"/><path class="cls-3" d="M576,651l-79.35-45.52L356.77,686.2V957.1l79.35,45.52,64.56-37.28V864.88l69.42-40.07v-61.4L528.1,740,576,712.36ZM433.21,994.22,362.6,953.73V692.91l70.61,40.5ZM365.53,687.87l131.09-75.68,70.58,40.49L436.12,728.36Zm195.74,77.3-60.59,35V755.82l21.53-12.43Z"/></g><path class="cls-1" d="M261.6,1135.6l-72.5-41.86a10.2,10.2,0,0,1,.07-17.71l131.67-74.55a65.13,65.13,0,0,1,64.66.28L420.55,1022a23.07,23.07,0,0,1-.17,40l-30,17-100.13,56.7A28.9,28.9,0,0,1,261.6,1135.6Z"/><g id="F-2" data-name="F"><polygon class="cls-2" points="190.98 1058.45 267.42 1102.29 267.42 834.76 190.98 790.92 190.98 1058.45"/><polygon class="cls-4" points="327.91 711.86 404.35 755.71 267.42 834.76 190.98 790.92 327.91 711.86"/><polygon class="cls-4" points="398.48 868.16 353.49 843.08 329.07 857.17 329.07 908.23 398.48 868.16"/><polygon class="cls-5" points="327.91 733.21 404.35 777.05 267.42 856.11 190.98 812.26 327.91 733.21"/><polygon class="cls-5" points="398.48 889.51 353.49 864.42 329.07 878.52 329.07 929.58 398.48 889.51"/><path class="cls-3" d="M407.26,754,327.91,708.5,188.07,789.23v270.91l79.35,45.52L332,1068.38V967.92l69.42-40.08v-61.4L359.4,843l47.86-27.63ZM264.51,1097.26l-70.61-40.5V796l70.61,40.5ZM196.83,790.91l131.09-75.69,70.58,40.49L267.41,831.4ZM392.57,868.2l-60.59,35V858.86l21.53-12.43Z"/></g><path class="cls-1" d="M775.93,1260.07l-217-128.37a11.21,11.21,0,0,1,0-19.4l98.15-56.54,144.12,87.52,87.15-46.46,81,47.18a11.2,11.2,0,0,1,0,19.4l-168.49,96.67A24.94,24.94,0,0,1,775.93,1260.07Z"/><g id="E"><polygon class="cls-2" points="559.84 1069.87 559.84 970.64 791.75 1104.54 791.75 1203.76 559.84 1069.87"/><path class="cls-4" d="M929.44,1025.05l-137.69,79.49L559.84,970.64l137.69-79.49,50.28,29-75,43.32,36.49,21.06,69.48-40.11,50.28,29-69.48,40.11,43.78,25.28,75-43.32Z"/><path class="cls-5" d="M929.44,1043.51,791.75,1123,559.84,989.11l137.69-79.5,50.28,29-75,43.32L709.27,1003l69.48-40.12L829,992l-69.48,40.11,43.78,25.27,75-43.31Z"/><path class="cls-3" d="M878.36,992.18,831.94,1019V971.8l-53.19-30.72-28,16.18V918.49l-53.2-30.71L556.92,969v102.59l234.83,135.58L932.36,1126V1023.36Zm-89.52,206.53L562.76,1068.18V975.69l226.08,130.53ZM565.67,970.64l131.86-76.13L742,920.18,667,963.5l42.32,24.43,69.48-40.11,44.45,25.66-69.48,40.11,49.61,28.65,75-43.32,45.25,26.13-131.86,76.12Z"/></g><path class="cls-1" d="M598.52,1360.71l-217-128.37a11.2,11.2,0,0,1,0-19.4l98.14-56.55,144.13,87.52,87.15-46.46,81,47.19a11.21,11.21,0,0,1,0,19.4L623.5,1360.71A25,25,0,0,1,598.52,1360.71Z"/><g id="E-2" data-name="E"><polygon class="cls-2" points="382.43 1170.5 382.43 1071.28 614.34 1205.17 614.34 1304.4 382.43 1170.5"/><path class="cls-4" d="M752,1125.68l-137.69,79.49L382.43,1071.28l137.68-79.5,50.29,29-75,43.32,36.49,21.07,69.48-40.12,50.28,29-69.48,40.11,43.79,25.28,75-43.32Z"/><path class="cls-5" d="M752,1144.14l-137.69,79.5-231.91-133.9,137.68-79.5,50.29,29-75,43.32,36.49,21.06,69.48-40.11,50.28,29-69.48,40.11L625.92,1158l75-43.32Z"/><path class="cls-3" d="M701,1092.82l-46.42,26.8v-47.19l-53.2-30.71-28,16.17v-38.76l-53.2-30.72-140.6,81.18v102.59l234.83,135.58,140.6-81.17V1124Zm-89.53,206.53L385.34,1168.82v-92.49l226.08,130.53ZM388.26,1071.28l131.85-76.13,44.45,25.66-75,43.32,42.32,24.43,69.48-40.11,44.45,25.67-69.48,40.11,49.62,28.64,75-43.32,45.25,26.13-131.86,76.13Z"/></g></svg>