<svg xmlns="http://www.w3.org/2000/svg" xmlns:xlink="http://www.w3.org/1999/xlink" viewBox="0 0 1125 1668"><defs><style>.cls-1{isolation:isolate;}.cls-2{fill:url(#Degradado_sin_nombre_4);}.cls-3,.cls-4{opacity:0.7;mix-blend-mode:multiply;}.cls-3{fill:url(#Degradado_sin_nombre_78);}.cls-4{fill:url(#Degradado_sin_nombre_76);}</style><linearGradient id="Degradado_sin_nombre_4" x1="373.69" y1="660.8" x2="750.75" y2="1037.86" gradientUnits="userSpaceOnUse"><stop offset="0" stop-color="#ffd01f"/><stop offset="0.33" stop-color="#ff7500"/><stop offset="0.67" stop-color="#ff00ab"/><stop offset="0.98" stop-color="#b900ff"/></linearGradient><linearGradient id="Degradado_sin_nombre_78" x1="652.87" y1="830.49" x2="652.87" y2="578.26" gradientUnits="userSpaceOnUse"><stop offset="0" stop-color="#a7008f" stop-opacity="0.95"/><stop offset="0.05" stop-color="#aa088b" stop-opacity="0.91"/><stop offset="0.11" stop-color="#b41f7f" stop-opacity="0.81"/><stop offset="0.18" stop-color="#c4446b" stop-opacity="0.64"/><stop offset="0.25" stop-color="#da784f" stop-opacity="0.4"/><stop offset="0.33" stop-color="#f5b92b" stop-opacity="0.1"/><stop offset="0.36" stop-color="#ffd01f" stop-opacity="0"/></linearGradient><linearGradient id="Degradado_sin_nombre_76" x1="453.81" y1="1109.1" x2="453.81" y2="830.49" gradientUnits="userSpaceOnUse"><stop offset="0.64" stop-color="#ffd01f" stop-opacity="0"/><stop offset="0.67" stop-color="#f5b92b" stop-opacity="0.1"/><stop offset="0.75" stop-color="#da784f" stop-opacity="0.4"/><stop offset="0.82" stop-color="#c4446b" stop-opacity="0.64"/><stop offset="0.89" stop-color="#b41f7f" stop-opacity="0.81"/><stop offset="0.95" stop-color="#aa088b" stop-opacity="0.91"/><stop offset="1" stop-color="#a7008f" stop-opacity="0.95"/></linearGradient></defs><g class="cls-1"><g id="Capa_1" data-name="Capa 1"><path class="cls-2" d="M778.62,951.48c0,96.78-86.52,157.64-217,157.64-129.78,0-215.57-60.86-215.57-157.64,0-55,28.59-96.06,77.72-121C385.61,807,364.35,771.1,364.35,724.91c0-90.19,80.65-146.65,197.24-146.65,118,0,198.7,56.46,198.7,146.65,0,46.19-22,82.12-60.12,105.58C750,855.42,778.62,896.48,778.62,951.48Zm-120.25-3.67c0-45.46-37.39-73.33-96.78-73.33-58.66,0-95.32,27.87-95.32,73.33s36.66,74.05,95.32,74.05C621,1021.86,658.37,993.27,658.37,947.81ZM482.4,730c0,38.86,30.79,63.06,79.19,63.06,49.12,0,80.65-24.2,80.65-63.06,0-40.33-32.26-64.53-80.65-64.53C513.93,665.51,482.4,689.71,482.4,730Z"/><path class="cls-3" d="M700.17,830.49C738.3,807,760.29,771.1,760.29,724.91c0-90.19-80.65-146.65-198.7-146.65-5.49,0-10.83.22-16.15.48v87.9a124.56,124.56,0,0,1,16.15-1.13c48.39,0,80.65,24.2,80.65,64.53,0,38.86-31.53,63.06-80.65,63.06C560.42,793.1,638.59,803.16,700.17,830.49Z"/><path class="cls-4" d="M560.35,1021.83c-57.92-.41-94.08-28.89-94.08-74,0-45.46,36.66-73.33,95.32-73.33,1.25,0-57.87,0-137.85-44-49.13,24.93-77.72,66-77.72,121,0,96.47,85.25,157.23,214.33,157.62Z"/></g></g></svg>