<svg xmlns="http://www.w3.org/2000/svg" xmlns:xlink="http://www.w3.org/1999/xlink" viewBox="0 0 1125 1668"><defs><style>.cls-1{isolation:isolate;}.cls-2{fill:url(#Degradado_sin_nombre_4);}.cls-3,.cls-5{mix-blend-mode:soft-light;}.cls-3{fill:url(#Degradado_sin_nombre_98);}.cls-4{opacity:0.7;mix-blend-mode:multiply;fill:url(#Degradado_sin_nombre_60);}.cls-5{fill:url(#Degradado_sin_nombre_69);}</style><linearGradient id="Degradado_sin_nombre_4" x1="367.65" y1="632.88" x2="749.85" y2="1015.08" gradientUnits="userSpaceOnUse"><stop offset="0" stop-color="#ffd01f"/><stop offset="0.33" stop-color="#ff7500"/><stop offset="0.67" stop-color="#ff00ab"/><stop offset="0.98" stop-color="#b900ff"/></linearGradient><linearGradient id="Degradado_sin_nombre_98" x1="638.68" y1="1097.5" x2="465.97" y2="798.36" gradientUnits="userSpaceOnUse"><stop offset="0.5" stop-color="#ffd01f" stop-opacity="0"/><stop offset="0.87"/></linearGradient><linearGradient id="Degradado_sin_nombre_60" x1="638.68" y1="1097.5" x2="465.97" y2="798.36" gradientUnits="userSpaceOnUse"><stop offset="0.64" stop-color="#ffd01f" stop-opacity="0"/><stop offset="0.71" stop-color="#f2953d" stop-opacity="0.27"/><stop offset="0.78" stop-color="#e66059" stop-opacity="0.51"/><stop offset="0.85" stop-color="#dc366e" stop-opacity="0.7"/><stop offset="0.91" stop-color="#d6197d" stop-opacity="0.84"/><stop offset="0.96" stop-color="#d10687" stop-opacity="0.92"/><stop offset="1" stop-color="#d0008a" stop-opacity="0.95"/></linearGradient><linearGradient id="Degradado_sin_nombre_69" x1="413.6" y1="625.73" x2="735.36" y2="625.73" gradientUnits="userSpaceOnUse"><stop offset="0" stop-color="#fff"/><stop offset="1" stop-opacity="0"/></linearGradient></defs><g class="cls-1"><g id="Capa_1" data-name="Capa 1"><path class="cls-2" d="M766.89,930.21c0,90.92-66.72,170.11-213.37,170.11-71.12,0-145.91-19.8-195.77-55l46.93-90.92c38.86,29.32,92.39,46.19,145.91,46.19,59.39,0,96-24.93,96-66.73,0-40.32-26.39-66.72-119.51-66.72H395.88l26.39-288.89H735.36v95.31H521.26L513.2,771.1H555C706.77,771.1,766.89,839.29,766.89,930.21Z"/><path class="cls-3" d="M555,771.1H513.2l-10.09,96h24c93.12,0,119.51,26.4,119.51,66.72,0,41.8-36.66,66.73-96,66.73-53.52,0-107-16.87-145.91-46.19l-46.93,90.92c49.86,35.19,124.65,55,195.77,55,146.65,0,213.37-79.19,213.37-170.11S706.77,771.1,555,771.1Z"/><path class="cls-4" d="M555,771.1H513.2l-10.09,96h24c93.12,0,119.51,26.4,119.51,66.72,0,41.8-36.66,66.73-96,66.73-53.52,0-107-16.87-145.91-46.19l-46.93,90.92c49.86,35.19,124.65,55,195.77,55,146.65,0,213.37-79.19,213.37-170.11S706.77,771.1,555,771.1Z"/><polygon class="cls-5" points="735.36 673.21 735.36 578.26 422.27 578.26 413.6 673.21 735.36 673.21"/></g></g></svg>