<svg xmlns="http://www.w3.org/2000/svg" xmlns:xlink="http://www.w3.org/1999/xlink" viewBox="0 0 1125 1668"><defs><style>.cls-1{isolation:isolate;}.cls-2{fill:url(#Degradado_sin_nombre_4);}.cls-3,.cls-4{mix-blend-mode:soft-light;}.cls-3{fill:url(#Degradado_sin_nombre_95);}.cls-4{fill:url(#Degradado_sin_nombre_85);}</style><linearGradient id="Degradado_sin_nombre_4" x1="385.28" y1="666.5" x2="739.66" y2="1020.88" gradientUnits="userSpaceOnUse"><stop offset="0" stop-color="#ffd01f"/><stop offset="0.33" stop-color="#ff7500"/><stop offset="0.67" stop-color="#ff00ab"/><stop offset="0.98" stop-color="#b900ff"/></linearGradient><linearGradient id="Degradado_sin_nombre_95" x1="588.04" y1="935.75" x2="327.81" y2="889.87" gradientUnits="userSpaceOnUse"><stop offset="0"/><stop offset="0.62" stop-color="#ffd01f" stop-opacity="0"/></linearGradient><linearGradient id="Degradado_sin_nombre_85" x1="672.31" y1="1106.23" x2="672.31" y2="578.26" gradientUnits="userSpaceOnUse"><stop offset="0.5" stop-color="#ffd01f" stop-opacity="0"/><stop offset="1"/></linearGradient></defs><g class="cls-1"><g id="Capa_1" data-name="Capa 1"><path class="cls-2" d="M342.35,843.69c0-169.38,93.85-265.43,220-265.43,126.85,0,220,96,220,265.43s-93.12,265.43-220,265.43C436.2,1109.12,342.35,1013.07,342.35,843.69Zm320.43,0c0-116.58-41.07-165-100.46-165-58.66,0-99.72,48.4-99.72,165s41.06,165,99.72,165C621.71,1008.67,662.78,960.27,662.78,843.69Z"/><path class="cls-3" d="M462.6,843.69c0-46.59,6.57-82.27,18.19-108.34H357.59c-9.85,31.75-15.24,67.93-15.24,108.34,0,167.2,91.48,262.88,215.14,265.31V1008.54C501.43,1005.92,462.6,957,462.6,843.69Z"/><path class="cls-4" d="M562.32,578.26V678.71c59.39,0,100.46,48.4,100.46,165,0,90.46-24.74,139.84-63.56,157.44v105.1c107.59-17.06,183.07-110.07,183.07-262.54C782.29,674.31,689.17,578.26,562.32,578.26Z"/><path class="cls-4" d="M562.32,578.26V678.71c59.39,0,100.46,48.4,100.46,165,0,90.46-24.74,139.84-63.56,157.44v105.1c107.59-17.06,183.07-110.07,183.07-262.54C782.29,674.31,689.17,578.26,562.32,578.26Z"/></g></g></svg>