<svg xmlns="http://www.w3.org/2000/svg" xmlns:xlink="http://www.w3.org/1999/xlink" viewBox="0 0 1125 1668"><defs><style>.cls-1{isolation:isolate;}.cls-2{fill:url(#Degradado_sin_nombre_4);}.cls-3{opacity:0.74;fill:url(#Degradado_sin_nombre_35);}.cls-4{fill:url(#Degradado_sin_nombre_4-2);}.cls-5,.cls-6{mix-blend-mode:soft-light;}.cls-5{fill:url(#Degradado_sin_nombre_95);}.cls-6{fill:url(#Degradado_sin_nombre_85);}</style><linearGradient id="Degradado_sin_nombre_4" x1="125.66" y1="672.56" x2="547.08" y2="1093.98" gradientUnits="userSpaceOnUse"><stop offset="0" stop-color="#ffd01f"/><stop offset="0.33" stop-color="#ff7500"/><stop offset="0.67" stop-color="#ff00ab"/><stop offset="0.98" stop-color="#b900ff"/></linearGradient><linearGradient id="Degradado_sin_nombre_35" x1="467.97" y1="1173.09" x2="225.58" y2="930.7" gradientUnits="userSpaceOnUse"><stop offset="0.27" stop-color="#ffd01f" stop-opacity="0"/><stop offset="0.35" stop-color="#f8c125" stop-opacity="0"/><stop offset="0.36" stop-color="#f4b72a" stop-opacity="0.05"/><stop offset="0.48" stop-color="#d9764e" stop-opacity="0.39"/><stop offset="0.59" stop-color="#c3436a" stop-opacity="0.65"/><stop offset="0.68" stop-color="#b41e7e" stop-opacity="0.84"/><stop offset="0.76" stop-color="#aa088b" stop-opacity="0.96"/><stop offset="0.82" stop-color="#a7008f"/></linearGradient><linearGradient id="Degradado_sin_nombre_4-2" x1="598.03" y1="666.5" x2="952.41" y2="1020.88" xlink:href="#Degradado_sin_nombre_4"/><linearGradient id="Degradado_sin_nombre_95" x1="800.79" y1="935.75" x2="540.56" y2="889.87" gradientUnits="userSpaceOnUse"><stop offset="0"/><stop offset="0.62" stop-color="#ffd01f" stop-opacity="0"/></linearGradient><linearGradient id="Degradado_sin_nombre_85" x1="885.05" y1="1106.23" x2="885.05" y2="578.26" gradientUnits="userSpaceOnUse"><stop offset="0.5" stop-color="#ffd01f" stop-opacity="0"/><stop offset="1"/></linearGradient></defs><g class="cls-1"><g id="Capa_1" data-name="Capa 1"><path class="cls-2" d="M540.74,1003.53v96.79H152.86v-96.9l198-167.07c45.46-43.26,53.52-69.65,53.52-94.58,0-40.33-27.86-63.79-82.12-63.79-44,0-81.39,16.86-106.32,51.32L129.4,673.58c39.59-57.93,111.45-95.32,203.84-95.32,114.38,0,190.64,58.65,190.64,151.77,0,49.87-13.94,95.32-85.79,162.05L320,1003.53Z"/><polygon class="cls-3" points="320.16 1003.42 152.86 1003.42 152.86 1100.32 540.74 1100.32 540.74 1003.53 320.04 1003.53 320.16 1003.42"/><path class="cls-4" d="M555.1,843.69c0-169.38,93.85-265.43,220-265.43,126.85,0,220,96,220,265.43s-93.12,265.43-220,265.43C649,1109.12,555.1,1013.07,555.1,843.69Zm320.42,0c0-116.58-41.06-165-100.45-165-58.66,0-99.72,48.4-99.72,165s41.06,165,99.72,165C834.46,1008.67,875.52,960.27,875.52,843.69Z"/><path class="cls-5" d="M675.35,843.69c0-46.59,6.57-82.27,18.19-108.34H570.33c-9.84,31.75-15.23,67.93-15.23,108.34,0,167.2,91.48,262.88,215.14,265.31V1008.54C714.17,1005.92,675.35,957,675.35,843.69Z"/><path class="cls-6" d="M775.07,578.26V678.71c59.39,0,100.45,48.4,100.45,165,0,90.46-24.73,139.84-63.55,157.44v105.1C919.56,1089.17,995,996.16,995,843.69,995,674.31,901.92,578.26,775.07,578.26Z"/><path class="cls-6" d="M775.07,578.26V678.71c59.39,0,100.45,48.4,100.45,165,0,90.46-24.73,139.84-63.55,157.44v105.1C919.56,1089.17,995,996.16,995,843.69,995,674.31,901.92,578.26,775.07,578.26Z"/></g></g></svg>