<svg id="Capa_1" data-name="Capa 1" xmlns="http://www.w3.org/2000/svg" xmlns:xlink="http://www.w3.org/1999/xlink" viewBox="0 0 1125 1668"><defs><style>.cls-1{fill:url(#Degradado_sin_nombre_4);}.cls-2{opacity:0.74;fill:url(#Degradado_sin_nombre_35);}</style><linearGradient id="Degradado_sin_nombre_4" x1="337.57" y1="672.56" x2="758.98" y2="1093.98" gradientUnits="userSpaceOnUse"><stop offset="0" stop-color="#ffd01f"/><stop offset="0.33" stop-color="#ff7500"/><stop offset="0.67" stop-color="#ff00ab"/><stop offset="0.98" stop-color="#b900ff"/></linearGradient><linearGradient id="Degradado_sin_nombre_35" x1="679.87" y1="1173.09" x2="437.48" y2="930.7" gradientUnits="userSpaceOnUse"><stop offset="0.27" stop-color="#ffd01f" stop-opacity="0"/><stop offset="0.35" stop-color="#f8c125" stop-opacity="0"/><stop offset="0.36" stop-color="#f4b72a" stop-opacity="0.05"/><stop offset="0.48" stop-color="#d9764e" stop-opacity="0.39"/><stop offset="0.59" stop-color="#c3436a" stop-opacity="0.65"/><stop offset="0.68" stop-color="#b41e7e" stop-opacity="0.84"/><stop offset="0.76" stop-color="#aa088b" stop-opacity="0.96"/><stop offset="0.82" stop-color="#a7008f"/></linearGradient></defs><path class="cls-1" d="M752.64,1003.53v96.79H364.77v-96.9l198-167.07c45.46-43.26,53.53-69.65,53.53-94.58,0-40.33-27.87-63.79-82.13-63.79-44,0-81.39,16.86-106.32,51.32L341.3,673.58c39.6-57.93,111.45-95.32,203.84-95.32,114.38,0,190.64,58.65,190.64,151.77,0,49.87-13.93,95.32-85.79,162.05l-118,111.45Z"/><polygon class="cls-2" points="532.06 1003.42 364.77 1003.42 364.77 1100.32 752.64 1100.32 752.64 1003.53 531.94 1003.53 532.06 1003.42"/></svg>