<svg id="Capa_1" data-name="Capa 1" xmlns="http://www.w3.org/2000/svg" viewBox="0 0 1125 1668"><defs><style>.cls-1{opacity:0.19;}.cls-2{fill:#2f13a5;}.cls-3{fill:#d311aa;}.cls-4{fill:#7352ff;}.cls-5{fill:#fff;opacity:0.4;}</style></defs><path class="cls-1" d="M539.39,1145.41l-130.33-73a18.72,18.72,0,0,1,0-32.42l122.2-71.3a60,60,0,0,1,59.63-.47l121.25,68.16a18.71,18.71,0,0,1,0,32.41l-131,76.57A41.77,41.77,0,0,1,539.39,1145.41Z"/><g id="_" data-name="?"><path class="cls-2" d="M447.65,994.08a30.11,30.11,0,0,1-12.34-2.5c-12-5.33-18.13-18.91-18.13-40.37a107.58,107.58,0,0,1,15.47-56.38c10.23-17,25.48-31.35,45.3-42.8,20.08-11.59,35.39-14.39,46.79-8.54S542,863.06,542,884.18a105.64,105.64,0,0,1-16.07,56.4A122.45,122.45,0,0,1,482.3,982.4C468.78,990.2,457.32,994.08,447.65,994.08Z"/><path class="cls-3" d="M529.08,851.91l-2.74,4a17,17,0,0,0-5.57-4.67,19.3,19.3,0,0,0-8.94-2c-7.77,0-17.64,3.44-29.53,10.3-18.53,10.7-32.73,24.08-42.19,39.76a99,99,0,0,0-14.23,51.88c0,17.69,4.37,28.61,13,32.42l115.43,72.15L645.68,919Z"/><polygon class="cls-2" points="529.18 846.95 530.47 857.73 639.47 920.39 552.92 1049.98 444.74 987.56 432.39 990.48 555.64 1061.58 651.87 917.49 529.18 846.95"/><path class="cls-3" d="M610.89,470.94l-2.62-1.46a48,48,0,0,0-8.77-3.77q-35.28-11.07-97.21,24.68Q427,533.85,357.85,619.32L472,684.79,617.63,610.3l70.53-48.67L721,534.17Z"/><path class="cls-2" d="M471.87,689.74l-116.63-66.3-2.68-4.5,1.9-2.36c46.24-57.13,95.25-100.86,145.65-130,42.8-24.7,75.73-32.92,100.7-25.05a51.49,51.49,0,0,1,9.55,4.12l2.7,1.49,115.52,66.34L691,565l-70.85,48.9ZM364.46,618.1,472.1,679.83l143.54-73.41,70.05-48.37,27.73-23.2L606.15,473.29a43.19,43.19,0,0,0-7.95-3.43c-22.16-6.93-53.73,1.21-93.74,24.3C456.16,522.05,409.07,563.73,364.46,618.1Z"/><path class="cls-4" d="M603,638.89,518,644.73c-6.59,11.11-15.73,24.33-27.63,39.85Q462,721.48,450.9,749.53A160.27,160.27,0,0,0,439.79,809V836.6L484,862l59.48,34.11,10.46,6,91.76-171.15,33.78-101.08Z"/><path class="cls-2" d="M557.18,905.21l-3.25,1.88-118.49-68V809a165.4,165.4,0,0,1,11.41-61.09c7.51-19,21-41.17,40-66,11.59-15.11,20.79-28.38,27.35-39.42l1.17-2,87.23-6,83.13-9.86-36,107.6Zm-113-71.13,108.06,62,89.64-167.2L673.15,635l-69.82,8.26-82.79,5.68a442.37,442.37,0,0,1-26.74,38.33c-18.57,24.18-31.64,45.67-38.85,63.89A156.63,156.63,0,0,0,444.14,809Z"/><polygon class="cls-4" points="357.85 619.32 471.99 684.79 510.59 749.73 396.46 684.27 357.85 619.32"/><path class="cls-5" d="M623.1,498.51l-2.63-1.46a47.89,47.89,0,0,0-8.76-3.77Q576.43,482.21,514.49,518q-75.27,43.45-144.43,128.93l114.13,65.47,145.65-74.49,70.53-48.67,32.84-27.46Z"/><path class="cls-5" d="M479.58,885.2s-8.58,6.29-18.25,19.35-13.55,33.81-13.55,33.81l116.08,66.35,30-52.18Z"/><path class="cls-2" d="M645.2,913.5c-11.41-5.85-26.71-3-46.8,8.54-19.81,11.45-35.06,25.84-45.3,42.8a107.58,107.58,0,0,0-15.47,56.38c0,21.46,6.1,35,18.14,40.38a30.22,30.22,0,0,0,12.33,2.49c9.67,0,21.13-3.88,34.66-11.68a122.37,122.37,0,0,0,43.61-41.82,105.72,105.72,0,0,0,16.07-56.4C662.44,933.07,656.64,919.39,645.2,913.5Z"/><path class="cls-2" d="M714.94,527c-25-7.85-57.9.35-100.7,25.05C564.7,580.69,516.53,623.49,471,679.19L357,613.53l-4.39,5.41,40.74,68.53,118.28,67.85,4.36-5.12c36-42.56,68-72.08,94.88-87.62,10.33-6,18.62-8.52,24.6-7.49,3.42.57,6.92,2.32,6.92,10.94,0,10.57-3.15,22-9.36,33.82-6.42,12.25-17.16,28.24-32,47.55-19.06,24.82-32.52,47-40,66a165.31,165.31,0,0,0-11.41,61.08v30.11l4.36,2.5,89.61-51.74V836.49c0-8.45,2.32-17.26,6.89-26.17,4.73-9.24,16.88-26.85,36.11-52.32,23.08-30.34,40.14-58.47,50.68-83.63a200.7,200.7,0,0,0,16-77.93C753.25,558.36,740.36,535,714.94,527Zm-315.31,154-29.57-49.71L468.82,688l11.51,19.35,18,30.35Z"/></g></svg>