<svg xmlns="http://www.w3.org/2000/svg" xmlns:xlink="http://www.w3.org/1999/xlink" viewBox="0 0 1125 1668"><defs><style>.cls-1{isolation:isolate;}.cls-2{fill:url(#Degradado_sin_nombre_4);}.cls-3{opacity:0.7;mix-blend-mode:multiply;fill:url(#Degradado_sin_nombre_60);}.cls-4{opacity:0.74;fill:url(#Degradado_sin_nombre_32);}</style><linearGradient id="Degradado_sin_nombre_4" x1="316.42" y1="611.62" x2="718.06" y2="1013.26" gradientUnits="userSpaceOnUse"><stop offset="0" stop-color="#ffd01f"/><stop offset="0.33" stop-color="#ff7500"/><stop offset="0.67" stop-color="#ff00ab"/><stop offset="0.98" stop-color="#b900ff"/></linearGradient><linearGradient id="Degradado_sin_nombre_60" x1="603.09" y1="1098.55" x2="435.72" y2="808.67" gradientUnits="userSpaceOnUse"><stop offset="0.64" stop-color="#ffd01f" stop-opacity="0"/><stop offset="0.71" stop-color="#f2953d" stop-opacity="0.27"/><stop offset="0.78" stop-color="#e66059" stop-opacity="0.51"/><stop offset="0.85" stop-color="#dc366e" stop-opacity="0.7"/><stop offset="0.91" stop-color="#d6197d" stop-opacity="0.84"/><stop offset="0.96" stop-color="#d10687" stop-opacity="0.92"/><stop offset="1" stop-color="#d0008a" stop-opacity="0.95"/></linearGradient><linearGradient id="Degradado_sin_nombre_32" x1="642.98" y1="739.29" x2="415.86" y2="512.17" gradientUnits="userSpaceOnUse"><stop offset="0.18" stop-color="#d0008a"/><stop offset="0.23" stop-color="#d10687" stop-opacity="0.97"/><stop offset="0.3" stop-color="#d5187d" stop-opacity="0.87"/><stop offset="0.39" stop-color="#db366e" stop-opacity="0.72"/><stop offset="0.48" stop-color="#e45f58" stop-opacity="0.51"/><stop offset="0.58" stop-color="#ee933d" stop-opacity="0.24"/><stop offset="0.67" stop-color="#f8c125" stop-opacity="0"/></linearGradient></defs><g class="cls-1"><g id="Capa_1" data-name="Capa 1"><path class="cls-2" d="M732.52,934.61c0,86.52-66.72,165.71-212.63,165.71-71.86,0-145.91-19.8-195.77-55l46.19-90.92c38.86,29.32,93.12,46.19,146.65,46.19,59.39,0,96-24.2,96-66,0-38.86-28.6-63.06-96-63.06H462.7V793.09L577.35,673.57H349.78V578.26H709.06v95l-115.85,114C685.6,801.89,732.52,859.08,732.52,934.61Z"/><path class="cls-3" d="M593.21,787.23s-89.63-9-130.51,5.86v78.46H517c67.45,0,96,24.2,96,63.06,0,41.79-36.66,66-96,66-53.53,0-107.79-16.87-146.65-46.19l-46.19,90.92c49.86,35.19,123.91,55,195.77,55,145.91,0,212.63-79.19,212.63-165.71C732.52,859.08,685.6,801.89,593.21,787.23Z"/><rect class="cls-4" x="349.78" y="578.26" width="359.28" height="94.95"/></g></g></svg>