<svg xmlns="http://www.w3.org/2000/svg" xmlns:xlink="http://www.w3.org/1999/xlink" viewBox="0 0 1125 1668"><defs><style>.cls-1{isolation:isolate;}.cls-2{fill:url(#Degradado_sin_nombre_4);}.cls-3{mix-blend-mode:multiply;fill:url(#Degradado_sin_nombre_55);}.cls-4{opacity:0.74;fill:url(#Degradado_sin_nombre_44);}.cls-5,.cls-7,.cls-8{mix-blend-mode:soft-light;}.cls-5{fill:url(#Degradado_sin_nombre_36);}.cls-6{fill:url(#Degradado_sin_nombre_4-2);}.cls-7{fill:url(#Degradado_sin_nombre_95);}.cls-8{fill:url(#Degradado_sin_nombre_85);}</style><linearGradient id="Degradado_sin_nombre_4" x1="194.87" y1="705.83" x2="526.66" y2="1037.61" gradientUnits="userSpaceOnUse"><stop offset="0" stop-color="#ffd01f"/><stop offset="0.33" stop-color="#ff7500"/><stop offset="0.67" stop-color="#ff00ab"/><stop offset="0.98" stop-color="#b900ff"/></linearGradient><linearGradient id="Degradado_sin_nombre_55" x1="416.66" y1="886.95" x2="416.66" y2="790.89" gradientUnits="userSpaceOnUse"><stop offset="0.07" stop-color="#d0008a" stop-opacity="0.95"/><stop offset="0.11" stop-color="#d10687" stop-opacity="0.92"/><stop offset="0.16" stop-color="#d6197d" stop-opacity="0.84"/><stop offset="0.22" stop-color="#dc366e" stop-opacity="0.7"/><stop offset="0.29" stop-color="#e66059" stop-opacity="0.51"/><stop offset="0.37" stop-color="#f2953d" stop-opacity="0.27"/><stop offset="0.44" stop-color="#ffd01f" stop-opacity="0"/></linearGradient><linearGradient id="Degradado_sin_nombre_44" x1="414.83" y1="1091.52" x2="414.83" y2="983.73" gradientUnits="userSpaceOnUse"><stop offset="0.5" stop-color="#ff00ab" stop-opacity="0"/><stop offset="0.51" stop-color="#fb00aa" stop-opacity="0.05"/><stop offset="0.59" stop-color="#dd00a0" stop-opacity="0.39"/><stop offset="0.66" stop-color="#c60099" stop-opacity="0.65"/><stop offset="0.73" stop-color="#b50093" stop-opacity="0.84"/><stop offset="0.78" stop-color="#ab0090" stop-opacity="0.96"/><stop offset="0.82" stop-color="#a7008f"/></linearGradient><linearGradient id="Degradado_sin_nombre_36" x1="270.28" y1="886.32" x2="270.28" y2="578.26" gradientUnits="userSpaceOnUse"><stop offset="0.02"/><stop offset="1" stop-color="#ffd01f"/></linearGradient><linearGradient id="Degradado_sin_nombre_4-2" x1="625.4" y1="666.5" x2="979.78" y2="1020.88" xlink:href="#Degradado_sin_nombre_4"/><linearGradient id="Degradado_sin_nombre_95" x1="828.17" y1="935.75" x2="567.94" y2="889.87" gradientUnits="userSpaceOnUse"><stop offset="0"/><stop offset="0.62" stop-color="#ffd01f" stop-opacity="0"/></linearGradient><linearGradient id="Degradado_sin_nombre_85" x1="912.43" y1="1106.23" x2="912.43" y2="578.26" gradientUnits="userSpaceOnUse"><stop offset="0.5" stop-color="#ffd01f" stop-opacity="0"/><stop offset="1"/></linearGradient></defs><g class="cls-1"><g id="Capa_1" data-name="Capa 1"><polygon class="cls-2" points="472.75 886.95 472.75 790.89 360.57 790.89 360.57 886.95 222.72 886.95 447.09 578.26 322.44 578.26 92.99 886.98 92.99 983.73 356.9 983.73 356.9 1091.52 472.75 1091.52 472.75 983.73 556.34 983.73 556.34 886.95 472.75 886.95"/><polygon class="cls-3" points="472.75 886.32 472.75 790.89 360.57 790.89 360.57 886.95 472.75 886.32"/><rect class="cls-4" x="356.91" y="983.73" width="115.85" height="107.78"/><polygon class="cls-5" points="223.17 886.32 447.09 578.26 322.44 578.26 93.47 886.32 223.17 886.32"/><path class="cls-6" d="M582.47,843.69c0-169.38,93.86-265.43,220-265.43,126.85,0,220,96,220,265.43s-93.12,265.43-220,265.43C676.33,1109.12,582.47,1013.07,582.47,843.69Zm320.43,0c0-116.58-41.06-165-100.46-165-58.65,0-99.72,48.4-99.72,165s41.07,165,99.72,165C861.84,1008.67,902.9,960.27,902.9,843.69Z"/><path class="cls-7" d="M702.72,843.69c0-46.59,6.57-82.27,18.19-108.34H597.71c-9.85,31.75-15.24,67.93-15.24,108.34,0,167.2,91.48,262.88,215.15,265.31V1008.54C741.55,1005.92,702.72,957,702.72,843.69Z"/><path class="cls-8" d="M802.44,578.26V678.71c59.4,0,100.46,48.4,100.46,165,0,90.46-24.73,139.84-63.55,157.44v105.1c107.59-17.06,183.06-110.07,183.06-262.54C1022.41,674.31,929.29,578.26,802.44,578.26Z"/><path class="cls-8" d="M802.44,578.26V678.71c59.4,0,100.46,48.4,100.46,165,0,90.46-24.73,139.84-63.55,157.44v105.1c107.59-17.06,183.06-110.07,183.06-262.54C1022.41,674.31,929.29,578.26,802.44,578.26Z"/></g></g></svg>