<svg xmlns="http://www.w3.org/2000/svg" xmlns:xlink="http://www.w3.org/1999/xlink" viewBox="0 0 1125 1668"><defs><style>.cls-1{isolation:isolate;}.cls-2{fill:url(#Degradado_sin_nombre_4);}.cls-3{mix-blend-mode:soft-light;fill:url(#Degradado_sin_nombre_10);}.cls-4{fill:url(#Degradado_sin_nombre_4-2);}.cls-5{opacity:0.74;fill:url(#Degradado_sin_nombre_35);}.cls-6{fill:url(#Degradado_sin_nombre_4-3);}</style><linearGradient id="Degradado_sin_nombre_4" x1="112.64" y1="301.32" x2="479.99" y2="668.67" gradientUnits="userSpaceOnUse"><stop offset="0" stop-color="#ffd01f"/><stop offset="0.33" stop-color="#ff7500"/><stop offset="0.67" stop-color="#ff00ab"/><stop offset="0.98" stop-color="#b900ff"/></linearGradient><linearGradient id="Degradado_sin_nombre_10" x1="159.93" y1="301.68" x2="261.53" y2="301.68" gradientUnits="userSpaceOnUse"><stop offset="0" stop-color="#ffd01f"/><stop offset="0.98"/></linearGradient><linearGradient id="Degradado_sin_nombre_4-2" x1="549.13" y1="981.53" x2="970.54" y2="1402.95" xlink:href="#Degradado_sin_nombre_4"/><linearGradient id="Degradado_sin_nombre_35" x1="891.43" y1="1482.06" x2="649.04" y2="1239.67" gradientUnits="userSpaceOnUse"><stop offset="0.27" stop-color="#ffd01f" stop-opacity="0"/><stop offset="0.35" stop-color="#f8c125" stop-opacity="0"/><stop offset="0.36" stop-color="#f4b72a" stop-opacity="0.05"/><stop offset="0.48" stop-color="#d9764e" stop-opacity="0.39"/><stop offset="0.59" stop-color="#c3436a" stop-opacity="0.65"/><stop offset="0.68" stop-color="#b41e7e" stop-opacity="0.84"/><stop offset="0.76" stop-color="#aa088b" stop-opacity="0.96"/><stop offset="0.82" stop-color="#a7008f"/></linearGradient><linearGradient id="Degradado_sin_nombre_4-3" x1="879.83" y1="676.67" x2="1197.17" y2="994" gradientTransform="matrix(0.76, 0.65, -0.9, 1.06, 460.81, -727.55)" xlink:href="#Degradado_sin_nombre_4"/></defs><g class="cls-1"><g id="Capa_1" data-name="Capa 1"><path class="cls-2" d="M381.37,254V767.29H262.59V349.34H159.93V254Z"/><rect class="cls-3" x="159.93" y="254.02" width="101.59" height="95.32"/><path class="cls-4" d="M964.21,1312.5v96.79H576.33v-96.9l198-167.07c45.46-43.26,53.53-69.65,53.53-94.58,0-40.33-27.87-63.8-82.13-63.8-44,0-81.38,16.87-106.32,51.33l-86.52-55.72c39.6-57.93,111.46-95.32,203.84-95.32,114.38,0,190.64,58.65,190.64,151.77,0,49.86-13.93,95.32-85.79,162l-118,111.45Z"/><polygon class="cls-5" points="743.62 1312.39 576.33 1312.39 576.33 1409.29 964.21 1409.29 964.21 1312.5 743.5 1312.5 743.62 1312.39"/><path class="cls-6" d="M687.23,517.16,778.79,596,318.26,1139l-90.59-76.83L602.67,620"/></g></g></svg>