<svg xmlns="http://www.w3.org/2000/svg" xmlns:xlink="http://www.w3.org/1999/xlink" viewBox="0 0 1125 1668"><defs><style>.cls-1{isolation:isolate;}.cls-2{fill:url(#Degradado_sin_nombre_4);}.cls-3,.cls-5,.cls-6,.cls-8,.cls-9{mix-blend-mode:soft-light;}.cls-3{fill:url(#Degradado_sin_nombre_10);}.cls-4{fill:url(#Degradado_sin_nombre_4-2);}.cls-5{fill:url(#Degradado_sin_nombre_95);}.cls-6{fill:url(#Degradado_sin_nombre_85);}.cls-7{fill:url(#Degradado_sin_nombre_4-3);}.cls-8{fill:url(#Degradado_sin_nombre_95-2);}.cls-9{fill:url(#Degradado_sin_nombre_85-3);}</style><linearGradient id="Degradado_sin_nombre_4" x1="71.95" y1="695.3" x2="359.72" y2="983.08" gradientUnits="userSpaceOnUse"><stop offset="0" stop-color="#ffd01f"/><stop offset="0.33" stop-color="#ff7500"/><stop offset="0.67" stop-color="#ff00ab"/><stop offset="0.98" stop-color="#b900ff"/></linearGradient><linearGradient id="Degradado_sin_nombre_10" x1="109" y1="695.59" x2="188.59" y2="695.59" gradientUnits="userSpaceOnUse"><stop offset="0" stop-color="#ffd01f"/><stop offset="0.98"/></linearGradient><linearGradient id="Degradado_sin_nombre_4-2" x1="351.18" y1="727.38" x2="628.8" y2="1005" xlink:href="#Degradado_sin_nombre_4"/><linearGradient id="Degradado_sin_nombre_95" x1="510.02" y1="938.31" x2="306.17" y2="902.36" gradientUnits="userSpaceOnUse"><stop offset="0"/><stop offset="0.62" stop-color="#ffd01f" stop-opacity="0"/></linearGradient><linearGradient id="Degradado_sin_nombre_85" x1="576.03" y1="1071.85" x2="576.03" y2="658.26" gradientUnits="userSpaceOnUse"><stop offset="0.5" stop-color="#ffd01f" stop-opacity="0"/><stop offset="1"/></linearGradient><linearGradient id="Degradado_sin_nombre_4-3" x1="721.99" y1="727.38" x2="999.6" y2="1005" xlink:href="#Degradado_sin_nombre_4"/><linearGradient id="Degradado_sin_nombre_95-2" x1="880.83" y1="938.31" x2="676.97" y2="902.36" xlink:href="#Degradado_sin_nombre_95"/><linearGradient id="Degradado_sin_nombre_85-3" x1="946.84" y1="1071.85" x2="946.84" y2="658.26" xlink:href="#Degradado_sin_nombre_85"/></defs><g class="cls-1"><g id="Capa_1" data-name="Capa 1"><path class="cls-2" d="M282.47,658.26v402.07H189.42V732.93H109V658.26Z"/><rect class="cls-3" x="109" y="658.26" width="79.59" height="74.67"/><path class="cls-4" d="M317.55,866.19c0-132.69,73.53-207.93,172.32-207.93,99.37,0,172.32,75.24,172.32,207.93s-73,207.93-172.32,207.93C391.08,1074.12,317.55,998.88,317.55,866.19Zm251,0c0-91.33-32.17-129.24-78.7-129.24-45.95,0-78.12,37.91-78.12,129.24s32.17,129.24,78.12,129.24C536.4,995.43,568.57,957.52,568.57,866.19Z"/><path class="cls-5" d="M411.75,866.19c0-36.5,5.15-64.45,14.25-84.87H329.49c-7.72,24.87-11.94,53.22-11.94,84.87,0,131,71.67,205.93,168.54,207.84v-78.7C442.17,993.28,411.75,955,411.75,866.19Z"/><path class="cls-6" d="M489.87,658.26V737c46.53,0,78.7,37.91,78.7,129.24,0,70.86-19.38,109.55-49.79,123.34v82.32c84.29-13.36,143.41-86.22,143.41-205.66C662.19,733.5,589.24,658.26,489.87,658.26Z"/><path class="cls-6" d="M489.87,658.26V737c46.53,0,78.7,37.91,78.7,129.24,0,70.86-19.38,109.55-49.79,123.34v82.32c84.29-13.36,143.41-86.22,143.41-205.66C662.19,733.5,589.24,658.26,489.87,658.26Z"/><path class="cls-7" d="M688.36,866.19c0-132.69,73.52-207.93,172.32-207.93,99.37,0,172.32,75.24,172.32,207.93s-73,207.93-172.32,207.93C761.88,1074.12,688.36,998.88,688.36,866.19Zm251,0c0-91.33-32.17-129.24-78.7-129.24-45.95,0-78.12,37.91-78.12,129.24s32.17,129.24,78.12,129.24C907.21,995.43,939.38,957.52,939.38,866.19Z"/><path class="cls-8" d="M782.56,866.19c0-36.5,5.15-64.45,14.25-84.87H700.3c-7.72,24.87-11.94,53.22-11.94,84.87,0,131,71.66,205.93,168.54,207.84v-78.7C813,993.28,782.56,955,782.56,866.19Z"/><path class="cls-9" d="M860.68,658.26V737c46.53,0,78.7,37.91,78.7,129.24,0,70.86-19.38,109.55-49.79,123.34v82.32C973.87,1058.49,1033,985.63,1033,866.19,1033,733.5,960.05,658.26,860.68,658.26Z"/><path class="cls-9" d="M860.68,658.26V737c46.53,0,78.7,37.91,78.7,129.24,0,70.86-19.38,109.55-49.79,123.34v82.32C973.87,1058.49,1033,985.63,1033,866.19,1033,733.5,960.05,658.26,860.68,658.26Z"/></g></g></svg>